<svg aria-hidden="true" style="position: absolute; width: 0; height: 0; overflow: hidden;" version="1.1" xmlns="http://www.w3.org/2000/svg" xmlns:xlink="http://www.w3.org/1999/xlink">
<defs>
<symbol id="antenna-icon" viewBox="0 0 70 70">
<path fill="#212121" style="fill: var(--color1, #212121)" d="M67.316 48.338l-18.469-18.605 2.050-10.096c0.529 0.207 1.091 0.314 1.659 0.318h0.014c2.608 0.031 4.747-2.058 4.778-4.666s-2.058-4.747-4.666-4.778c-2.608-0.031-4.747 2.058-4.778 4.666-0.006 0.558 0.086 1.113 0.273 1.639l-10.85 1.324-17.698-17.791c-0.217-0.222-0.514-0.348-0.824-0.35-0.306 0.002-0.6 0.124-0.817 0.339l-3.309 3.29c-0.455 0.456-0.455 1.194 0 1.65l1.78 1.806c-6.897 12.683-4.657 28.389 5.511 38.638 0.093 0.089 0.202 0.162 0.32 0.213-0.073 0.395-0.112 0.795-0.114 1.197v13.533h-14c-3.22 0.004-5.83 2.613-5.833 5.833v2.333c0 0.644 0.522 1.167 1.167 1.167h53.667c0.644 0 1.167-0.522 1.167-1.167v-2.333c-0.004-3.22-2.613-5.829-5.833-5.833h-14v-5.998c2.193 0.46 4.428 0.695 6.669 0.7 5.377-0.006 10.669-1.346 15.4-3.901l1.79 1.8c0.217 0.221 0.514 0.347 0.824 0.35 0.306-0.002 0.6-0.124 0.817-0.339l3.309-3.29c0.455-0.456 0.455-1.194 0-1.65zM50.925 13.635c0.914-0.909 2.391-0.905 3.3 0.009s0.905 2.391-0.009 3.3c-0.437 0.435-1.029 0.679-1.646 0.679h-0.007c-1.289-0.007-2.328-1.057-2.321-2.345 0.003-0.617 0.25-1.207 0.688-1.642h-0.005zM48.178 21.301l-1.309 6.443-2.571-2.587 3.88-3.857zM46.853 19.328l-4.2 4.176-3.249-3.267 7.449-0.909zM52.509 63c1.933 0 3.5 1.567 3.5 3.5v1.167h-51.333v-1.167c0-1.933 1.567-3.5 3.5-3.5h44.333zM36.176 58.333v2.333h-11.667v-2.333h11.667zM24.509 56v-8.867c0-2.83 2.617-5.133 5.833-5.133s5.833 2.303 5.833 5.133v8.867h-11.667zM38.509 52.29v-5.157c0-4.117-3.663-7.467-8.167-7.467-2.912-0.045-5.634 1.437-7.177 3.907-8.876-9.349-10.875-23.286-4.984-34.753l40.691 40.925c-6.283 3.196-13.486 4.096-20.363 2.544zM63.204 50.794l-46.062-46.333 1.651-1.645 17.358 17.456c0.008 0 0.013 0.015 0.021 0.021l28.688 28.856-1.656 1.645z"></path>
<path fill="#2196f3" style="fill: var(--color2, #2196f3)" d="M30.353 44.333h-0.011c-1.933-0.003-3.502 1.562-3.505 3.495s1.562 3.502 3.495 3.505h0.011c1.933 0.003 3.502-1.562 3.505-3.495s-1.562-3.502-3.495-3.505zM31.169 48.661c-0.22 0.218-0.517 0.341-0.827 0.339-0.644-0.003-1.164-0.528-1.16-1.173 0.002-0.308 0.125-0.604 0.344-0.821 0.217-0.216 0.51-0.338 0.817-0.339 0.644 0.003 1.164 0.528 1.161 1.173-0.002 0.308-0.125 0.604-0.344 0.821h0.011z"></path>
</symbol>
<symbol id="astronaut-icon" viewBox="0 0 70 70">
<path fill="#2196f3" style="fill: var(--color2, #2196f3)" d="M69.943 9.896c-0.138-0.421-0.502-0.729-0.942-0.793l-4.179-0.608-1.87-3.787c-0.392-0.798-1.7-0.798-2.092 0l-1.87 3.787-4.179 0.608c-0.44 0.064-0.804 0.371-0.943 0.793-0.136 0.422-0.023 0.887 0.295 1.196l3.025 2.948-0.714 4.163c-0.075 0.437 0.105 0.88 0.463 1.141 0.363 0.264 0.836 0.296 1.23 0.089l3.738-1.966 3.738 1.966c0.17 0.090 0.358 0.134 0.544 0.134 0.242 0 0.483-0.075 0.686-0.223 0.359-0.261 0.539-0.704 0.463-1.141l-0.714-4.163 3.025-2.948c0.317-0.31 0.431-0.774 0.295-1.196zM64.556 12.799c-0.274 0.267-0.4 0.654-0.335 1.033l0.418 2.437-2.189-1.15c-0.17-0.090-0.357-0.134-0.544-0.134s-0.372 0.044-0.544 0.134l-2.189 1.15 0.418-2.437c0.065-0.378-0.061-0.764-0.335-1.033l-1.772-1.727 2.448-0.356c0.38-0.055 0.708-0.294 0.879-0.638l1.094-2.217 1.094 2.217c0.17 0.344 0.498 0.583 0.879 0.638l2.448 0.356-1.77 1.727z"></path>
<path fill="#2196f3" style="fill: var(--color2, #2196f3)" d="M57.167 44.892h-2.333v2.333h2.333v-2.333z"></path>
<path fill="#2196f3" style="fill: var(--color2, #2196f3)" d="M57.167 49.559h-2.333v2.333h2.333v-2.333z"></path>
<path fill="#2196f3" style="fill: var(--color2, #2196f3)" d="M59.5 47.226h-2.333v2.333h2.333v-2.333z"></path>
<path fill="#2196f3" style="fill: var(--color2, #2196f3)" d="M54.834 47.226h-2.333v2.333h2.333v-2.333z"></path>
<path fill="#2196f3" style="fill: var(--color2, #2196f3)" d="M49 57.726h-2.333v2.333h2.333v-2.333z"></path>
<path fill="#2196f3" style="fill: var(--color2, #2196f3)" d="M49 62.393h-2.333v2.333h2.333v-2.333z"></path>
<path fill="#2196f3" style="fill: var(--color2, #2196f3)" d="M51.334 60.059h-2.334v2.333h2.334v-2.333z"></path>
<path fill="#2196f3" style="fill: var(--color2, #2196f3)" d="M46.667 60.059h-2.333v2.333h2.333v-2.333z"></path>
<path fill="#2196f3" style="fill: var(--color2, #2196f3)" d="M35 53.059h-2.333v2.333h2.333v-2.333z"></path>
<path fill="#2196f3" style="fill: var(--color2, #2196f3)" d="M35 57.726h-2.333v2.333h2.333v-2.333z"></path>
<path fill="#2196f3" style="fill: var(--color2, #2196f3)" d="M37.333 55.392h-2.333v2.333h2.333v-2.333z"></path>
<path fill="#2196f3" style="fill: var(--color2, #2196f3)" d="M32.667 55.392h-2.333v2.333h2.333v-2.333z"></path>
<path fill="#2196f3" style="fill: var(--color2, #2196f3)" d="M12.833 13.392h-2.333v2.333h2.333v-2.333z"></path>
<path fill="#2196f3" style="fill: var(--color2, #2196f3)" d="M12.833 18.059h-2.333v2.333h2.333v-2.333z"></path>
<path fill="#2196f3" style="fill: var(--color2, #2196f3)" d="M15.166 15.725h-2.333v2.333h2.333v-2.333z"></path>
<path fill="#2196f3" style="fill: var(--color2, #2196f3)" d="M10.5 15.725h-2.333v2.333h2.333v-2.333z"></path>
<path fill="#212121" style="fill: var(--color1, #212121)" d="M54.064 30.974c-0.629-0.848-1.552-1.394-2.599-1.541-1.052-0.149-2.091 0.127-2.931 0.77l-2.74 2.1-4.151 3.1-2.97-1.183c5.297-2.377 8.999-7.675 8.999-13.825 0-8.363-6.831-15.167-15.228-15.167s-15.227 6.804-15.227 15.167c0 3.031 0.906 5.85 2.45 8.222l-6.046-0.052c-0.003 0-0.007 0-0.011 0-0.019 0-0.034 0.009-0.051 0.011-0.116 0.005-0.229 0.028-0.339 0.068-0.028 0.011-0.057 0.016-0.084 0.029-0.014 0.006-0.028 0.007-0.042 0.014l-7.072 3.492c-0.001 0-0.002 0-0.002 0.001l-4.142 1.992c-0.046 0.020-0.092 0.047-0.138 0.077-1.651 1.099-2.213 3.257-1.309 5.021 0.482 0.938 1.302 1.629 2.31 1.945 0.389 0.121 0.785 0.181 1.179 0.181 0.634 0 1.261-0.155 1.836-0.462l3.036-1.615 4.952-2.557 2.968-0.017-11.904 11.847c-0.001 0.001-0.002 0.001-0.004 0.002l-2.928 2.917c-0.692 0.688-1.072 1.602-1.072 2.576 0 0.973 0.38 1.889 1.072 2.578 0.711 0.707 1.645 1.062 2.58 1.062 0.936 0 1.869-0.355 2.582-1.062l2.875-2.863 3.808-2.843 1.971 1.962-3.854 3.837c-0.001 0.001-0.002 0.001-0.004 0.002l-2.928 2.917c-0.692 0.688-1.072 1.602-1.072 2.576 0 0.973 0.38 1.889 1.072 2.579 0.711 0.707 1.646 1.062 2.581 1.062s1.87-0.355 2.582-1.062l7.616-7.583c0.001-0.001 0.001-0.002 0.002-0.004l2.209-2.188-0.008-0.008c0.014-0.014 0.034-0.019 0.048-0.034l11.3-12.377 7.593 1.080c0.055 0.008 0.11 0.012 0.164 0.012 0.141 0 0.278-0.034 0.409-0.084 0.038-0.014 0.072-0.033 0.108-0.051 0.042-0.021 0.086-0.033 0.126-0.059l7.029-4.667c0.026-0.017 0.040-0.046 0.064-0.064 0.028-0.022 0.063-0.032 0.089-0.056l2.781-2.605c1.447-1.356 1.647-3.577 0.464-5.166zM4.66 38.872c-0.379 0.203-0.81 0.244-1.221 0.113-0.408-0.127-0.74-0.406-0.933-0.783-0.352-0.686-0.148-1.521 0.469-1.973l2.874-1.383 0.982 2.871-2.17 1.154zM12.31 34.874l-3.387 1.75-0.96-2.807 4.434-2.189-0.087 3.246zM45.34 20.392c0 2.009-0.479 3.904-1.31 5.599l-9.147-4.155c-0.096-1.254-0.747-2.352-1.724-3.036l3.203-10.632c5.201 1.654 8.979 6.507 8.979 12.223zM19.552 20.392c0-7.076 5.784-12.834 12.894-12.834 0.553 0 1.094 0.047 1.63 0.114l-3.133 10.399c-0.042-0.001-0.082-0.013-0.125-0.013-2.259 0-4.096 1.832-4.096 4.083s1.838 4.084 4.096 4.084c1.519 0 2.832-0.839 3.54-2.066l8.449 3.839c-2.351 3.164-6.114 5.228-10.361 5.228-7.11 0-12.894-5.758-12.894-12.834zM32.581 22.142c0 0.965-0.791 1.75-1.763 1.75s-1.763-0.785-1.763-1.75c0-0.965 0.791-1.75 1.763-1.75s1.763 0.785 1.763 1.75zM5.392 55.007c-0.517 0.512-1.353 0.511-1.869 0.001-0.249-0.249-0.385-0.576-0.385-0.925 0-0.348 0.136-0.676 0.385-0.922l2.105-2.097 1.862 1.854-2.098 2.088zM12.422 63.174c-0.517 0.512-1.354 0.513-1.87 0.001-0.249-0.249-0.385-0.576-0.385-0.925 0-0.348 0.136-0.676 0.385-0.922l2.106-2.098 1.863 1.854-2.099 2.089zM20.038 55.586c-0.001 0.001-0.002 0.001-0.004 0.002l-3.861 3.85-1.863-1.854 3.857-3.839c0 0 0 0 0-0.001 0.001-0.001 0.002-0.001 0.004-0.002 0.087-0.087 0.142-0.193 0.196-0.296 0.015-0.030 0.044-0.056 0.057-0.087 0.036-0.090 0.042-0.187 0.056-0.281 0.007-0.054 0.030-0.104 0.030-0.159 0-0.078-0.028-0.154-0.044-0.231-0.014-0.070-0.014-0.141-0.041-0.209-0.044-0.11-0.12-0.206-0.199-0.301-0.022-0.026-0.030-0.058-0.055-0.083 0 0 0 0-0.001 0-0.001-0.001-0.001-0.004-0.002-0.005l-3.515-3.5c-0.037-0.037-0.085-0.053-0.127-0.084-0.062-0.048-0.121-0.092-0.19-0.126-0.066-0.033-0.134-0.053-0.204-0.071-0.075-0.021-0.147-0.037-0.225-0.043-0.071-0.005-0.138 0.002-0.209 0.011-0.078 0.009-0.152 0.020-0.228 0.044-0.073 0.023-0.139 0.059-0.206 0.098-0.043 0.024-0.092 0.033-0.133 0.063l-3.879 2.896-1.971-1.962 5.248-5.22 9.539 9.381-2.029 2.010zM34.954 40.237c-0.034-0.005-0.065 0.008-0.099 0.006-0.085-0.005-0.167 0.001-0.252 0.015-0.067 0.012-0.129 0.024-0.192 0.047-0.075 0.026-0.142 0.061-0.211 0.103-0.065 0.040-0.125 0.082-0.182 0.134-0.028 0.024-0.062 0.036-0.087 0.064l-10.277 11.256-9.468-9.311 6.197-6.165c0.456-0.455 0.459-1.193 0.003-1.651-0.23-0.23-0.532-0.343-0.834-0.342v-0.001l-4.853 0.029 0.061-3.516 6.79 0.058c2.767 2.83 6.627 4.596 10.897 4.596 0.957 0 1.89-0.099 2.799-0.268 0.087 0.070 0.174 0.141 0.283 0.186l5.271 2.1 0.334 1.659 0.39 1.937-6.568-0.934zM43.794 40.627l-0.685-3.408 3.164-2.363 2.071 2.749-4.55 3.022zM52.005 34.434l-1.833 1.717-2.037-2.704 1.819-1.394c0.339-0.261 0.768-0.367 1.188-0.313 0.422 0.059 0.796 0.28 1.050 0.622 0.474 0.638 0.393 1.528-0.187 2.072z"></path>
<path fill="#212121" style="fill: var(--color1, #212121)" d="M29.755 40.565l-4.688-4.667c-0.454-0.454-1.191-0.454-1.646 0l-4.687 4.667c-0.219 0.221-0.343 0.517-0.343 0.827s0.122 0.608 0.343 0.827l4.687 4.667c0.227 0.226 0.526 0.339 0.824 0.339s0.596-0.113 0.823-0.339l4.688-4.667c0.219-0.219 0.344-0.517 0.344-0.827s-0.124-0.608-0.344-0.827zM24.244 44.413l-3.033-3.021 3.033-3.021 3.034 3.021-3.034 3.021z"></path>
<path fill="#212121" style="fill: var(--color1, #212121)" d="M37.547 11.092l-0.563 2.266c0.155 0.038 3.801 0.988 3.801 4.701h2.333c-0-4.413-3.644-6.487-5.571-6.966z"></path>
<path fill="#212121" style="fill: var(--color1, #212121)" d="M43.118 20.392h-2.333v2.333h2.333v-2.333z"></path>
</symbol>
<symbol id="clock-icon" viewBox="0 0 70 70">
<path fill="#212121" style="fill: var(--color1, #212121)" d="M68.461 33.471c-0.004-18.49-14.996-33.475-33.486-33.471s-33.475 14.996-33.472 33.486c0.003 14.564 9.421 27.455 23.296 31.885 0.132 0.042 0.27 0.063 0.409 0.062 0.264-0 0.522-0.071 0.749-0.205 0.295-0.175 0.516-0.452 0.619-0.78l8.455-26.797c2.311-0.012 4.175-1.895 4.163-4.206s-1.895-4.175-4.206-4.163c-0.622 0.003-1.235 0.146-1.794 0.419l-11.169-11.171c-0.554-0.535-1.437-0.52-1.972 0.034-0.522 0.541-0.522 1.398 0 1.939l11.163 11.176c-0.857 1.748-0.367 3.859 1.173 5.051l-8.056 25.534c-15.92-5.864-24.072-23.524-18.208-39.444s23.524-24.072 39.444-18.208c15.92 5.864 24.072 23.525 18.208 39.444-2.865 7.778-8.752 14.068-16.323 17.442l-0.87-4.1c-0.159-0.754-0.9-1.235-1.653-1.076-0.238 0.051-0.458 0.162-0.64 0.324l-8.393 7.493c-0.576 0.512-0.627 1.394-0.114 1.97 0.167 0.187 0.38 0.326 0.619 0.402l10.716 3.42c0.733 0.235 1.519-0.168 1.754-0.902 0.075-0.232 0.087-0.479 0.037-0.717l-0.856-4.023c12.391-5.224 20.436-17.373 20.407-30.82zM34.983 32.077c0.77 0 1.395 0.625 1.395 1.395s-0.625 1.395-1.395 1.395c-0.771 0-1.395-0.624-1.395-1.395s0.624-1.395 1.395-1.395zM39.577 64.592l4.778-4.262 1.319 6.213-6.096-1.951z"></path>
<path fill="#2196f3" style="fill: var(--color2, #2196f3)" d="M33.588 6.967v2.79c0 0.771 0.624 1.395 1.395 1.395s1.395-0.624 1.395-1.395v-2.79c0-0.77-0.625-1.395-1.395-1.395s-1.395 0.625-1.395 1.395z"></path>
<path fill="#2196f3" style="fill: var(--color2, #2196f3)" d="M8.479 32.076c-0.771 0-1.395 0.625-1.395 1.395s0.624 1.395 1.395 1.395h2.79c0.771 0 1.395-0.624 1.395-1.395s-0.624-1.395-1.395-1.395h-2.79z"></path>
<path fill="#2196f3" style="fill: var(--color2, #2196f3)" d="M61.487 34.866c0.771 0 1.395-0.624 1.395-1.395s-0.624-1.395-1.395-1.395h-2.79c-0.77 0-1.395 0.625-1.395 1.395s0.625 1.395 1.395 1.395h2.79z"></path>
</symbol>
<symbol id="diagram-icon" viewBox="0 0 70 70">
<path fill="#2196f3" style="fill: var(--color2, #2196f3)" d="M32.65 32.735h2.332v10.495h-2.332v-10.495z"></path>
<path fill="#2196f3" style="fill: var(--color2, #2196f3)" d="M41.978 37.399h2.332v5.83h-2.332v-5.83z"></path>
<path fill="#2196f3" style="fill: var(--color2, #2196f3)" d="M23.321 40.898h2.332v2.332h-2.332v-2.332z"></path>
<path fill="#2196f3" style="fill: var(--color2, #2196f3)" d="M16.325 39.731h2.332v3.498h-2.332v-3.498z"></path>
<path fill="#212121" style="fill: var(--color1, #212121)" d="M3.498 61.886h55.971c1.932 0 3.498-1.566 3.498-3.498v-4.664c0-1.932-1.566-3.498-3.498-3.498h-1.166v-29.079l6.623-6.274c1.537 0.758 3.398 0.298 4.404-1.091s0.865-3.299-0.334-4.525-3.107-1.408-4.517-0.433c-1.41 0.976-1.911 2.826-1.187 4.38l-4.991 4.731v-2.69c0-1.932-1.566-3.498-3.498-3.498h-46.642c-1.932 0-3.498 1.566-3.498 3.498v34.982h-1.166c-1.932 0-3.498 1.566-3.498 3.498v4.664c0 1.932 1.566 3.498 3.498 3.498zM66.465 10.58c0.644 0 1.166 0.522 1.166 1.166s-0.522 1.166-1.166 1.166c-0.644 0-1.166-0.522-1.166-1.166s0.522-1.166 1.166-1.166zM6.996 15.244c0-0.644 0.522-1.166 1.166-1.166h46.642c0.644 0 1.166 0.522 1.166 1.166v4.897l-2.332 2.216v-4.781c0-0.644-0.522-1.166-1.166-1.166h-41.978c-0.644 0-1.166 0.522-1.166 1.166v29.151c0 0.644 0.522 1.166 1.166 1.166h41.978c0.644 0 1.166-0.522 1.166-1.166v-21.163l2.332-2.21v26.87h-48.974v-34.982zM17.491 30.403c-1.578-0.005-2.963 1.047-3.382 2.567s0.23 3.134 1.587 3.939c1.356 0.805 3.084 0.603 4.218-0.494l4.053 2.034c0.471 0.236 1.042 0.125 1.392-0.268l8.616-9.693 8.47 6.347c0.454 0.34 1.089 0.304 1.501-0.086l7.361-6.973v17.787h-39.646v-26.819h39.646v5.82l-8.25 7.813-8.541-6.403c-0.485-0.363-1.168-0.295-1.571 0.158l-8.735 9.828-3.265-1.633c0.024-0.14 0.039-0.281 0.044-0.423 0-1.932-1.566-3.498-3.498-3.498zM18.657 33.901c0 0.644-0.522 1.166-1.166 1.166s-1.166-0.522-1.166-1.166c0-0.644 0.522-1.166 1.166-1.166s1.166 0.522 1.166 1.166zM25.653 52.558h11.661v1.166c0 0.644-0.522 1.166-1.166 1.166h-9.328c-0.644 0-1.166-0.522-1.166-1.166v-1.166zM2.332 53.724c0-0.644 0.522-1.166 1.166-1.166h19.823v1.166c0 1.932 1.566 3.498 3.498 3.498h9.328c1.932 0 3.498-1.566 3.498-3.498v-1.166h19.823c0.644 0 1.166 0.522 1.166 1.166v4.664c0 0.644-0.522 1.166-1.166 1.166h-55.971c-0.644 0-1.166-0.522-1.166-1.166v-4.664z"></path>
</symbol>
</defs>
</svg>
